<svg width="37" height="53" viewBox="0 0 37 53" fill="none" xmlns="http://www.w3.org/2000/svg">
<path opacity="0.698551" fill-rule="evenodd" clip-rule="evenodd" d="M36.9763 34.0401C36.9763 43.9678 28.6943 52.025 18.4897 52.025C8.28507 52.025 -0.185708 43.966 0.00309641 34.0401C0.253951 20.7258 10.4174 15.3027 18.4897 0C27.0637 14.8009 36.9763 24.1125 36.9763 34.0401Z" fill="black" fill-opacity="0.526012"/>
<path opacity="0.698551" fill-rule="evenodd" clip-rule="evenodd" d="M36.3375 33.9984C36.3375 43.5309 28.3852 51.2674 18.5868 51.2674C8.7884 51.2674 0.654813 43.5292 0.836087 33.9984C1.07696 21.2141 10.8359 16.0068 18.5868 1.31329C26.8195 15.5251 36.3375 24.466 36.3375 33.9984Z" fill="#F9CE2F"/>
<path opacity="0.698551" fill-rule="evenodd" clip-rule="evenodd" d="M36.0285 33.629C36.0285 43.0481 28.1707 50.6926 18.4889 50.6926C8.80697 50.6926 0.770104 43.0464 0.949227 33.629C1.18724 20.9967 10.8301 15.8513 18.4889 1.33252C23.7484 48.1709 36.0285 24.2099 36.0285 33.629Z" fill="#F9CE2F"/>
<path opacity="0.698551" fill-rule="evenodd" clip-rule="evenodd" d="M36.9763 34.0401C36.9763 43.9678 28.6943 52.025 18.4897 52.025C8.28507 52.025 -0.185708 43.966 0.00309641 34.0401C0.253951 20.7258 10.4174 15.3027 18.4897 0C27.0637 14.8009 36.9763 24.1125 36.9763 34.0401Z" fill="#F9CE2F"/>
<path d="M13.9603 47.9C13.9603 47.9 26.0798 24.0389 26.0813 24.0355L26.7539 22.6784C24.1467 23.3581 18.3216 24.6522 18.3029 24.7048C18.9121 23.1581 21.5338 16.2125 21.6468 16.2125C19.1548 16.2125 16.6629 16.2125 14.171 16.2125L13.4125 19.489L10.2224 31.3649L18.6497 29.2834L13.9603 47.9Z" fill="#006542"/>
</svg>
